<svg width="195" height="159" viewBox="0 0 195 159" fill="none" xmlns="http://www.w3.org/2000/svg">
<path d="M121.386 88.5704L122.195 88.2769L136.294 127.214L135.485 127.508L121.386 88.5704Z" fill="#010202"/>
<path d="M124.823 88.3901L125.632 88.0965L139.73 127.034L138.921 127.327L124.823 88.3901Z" fill="#010202"/>
<path d="M129.028 86.4444L129.837 86.1508L143.936 125.088L143.127 125.382L129.028 86.4444Z" fill="#010202"/>
<path d="M132.375 84.5437L133.183 84.2501L147.282 123.187L146.473 123.481L132.375 84.5437Z" fill="#010202"/>
<path d="M135.766 83.5032L136.575 83.2096L150.673 122.147L149.865 122.44L135.766 83.5032Z" fill="#010202"/>
<path d="M140.017 82.4176L140.825 82.124L154.924 121.061L154.115 121.355L140.017 82.4176Z" fill="#010202"/>
<path d="M143.363 80.5169L144.172 80.2233L158.27 119.161L157.461 119.454L143.363 80.5169Z" fill="#010202"/>
<path d="M147.613 79.4313L148.422 79.1377L162.521 118.075L161.712 118.369L147.613 79.4313Z" fill="#010202"/>
<path d="M150.101 77.5757L150.909 77.2821L165.008 116.219L164.199 116.513L150.101 77.5757Z" fill="#010202"/>
<path d="M153.492 76.5352L154.301 76.2416L168.399 115.179L167.591 115.472L153.492 76.5352Z" fill="#010202"/>
<path d="M157.698 74.5894L158.506 74.2959L172.605 113.233L171.796 113.527L157.698 74.5894Z" fill="#010202"/>
<path d="M161.993 74.364L162.802 74.0705L176.9 113.008L176.092 113.301L161.993 74.364Z" fill="#010202"/>
<path d="M166.199 72.4183L167.007 72.1247L181.106 111.062L180.297 111.356L166.199 72.4183Z" fill="#010202"/>
<path d="M168.686 70.5627L169.495 70.2691L183.593 109.206L182.784 109.5L168.686 70.5627Z" fill="#010202"/>
<path fill-rule="evenodd" clip-rule="evenodd" d="M140.673 85.8361C142.083 81.0458 142.679 76.0357 142.413 70.9483C141.567 54.7878 132.083 40.6346 117.942 33.6964C111.395 30.4811 104.152 28.9711 96.7271 29.3607C73.4517 30.582 55.3249 50.158 55.5851 73.649C55.5877 74.2157 55.6073 74.8185 55.6431 75.5014C56.9115 99.7355 77.3597 118.357 101.32 117.099C109.887 116.65 117.953 113.703 124.718 108.685C132.338 103.036 137.964 95.005 140.673 85.8361ZM117.522 34.5732C131.35 41.3579 140.623 55.1966 141.45 70.9988C141.71 75.9745 141.128 80.8731 139.749 85.5567C137.101 94.5212 131.599 102.374 124.147 107.899C117.533 112.805 109.647 115.686 101.269 116.126C77.8405 117.355 57.8461 99.1474 56.6058 75.4509C56.5708 74.7826 56.5516 74.195 56.5492 73.6423C56.2947 50.67 74.0193 31.5284 96.7781 30.3342C104.039 29.9531 111.12 31.4294 117.522 34.5732Z" fill="#010202"/>
<path d="M18.5385 98.1544L18.0197 97.3293L126.756 27.785L127.275 28.6101L18.5385 98.1544Z" fill="#010202"/>
<path fill-rule="evenodd" clip-rule="evenodd" d="M154.922 63.0686L151.379 64.4449L126.711 1.37626L130.254 0L154.922 63.0686Z" fill="#010202"/>
<path fill-rule="evenodd" clip-rule="evenodd" d="M8.60109 57.2737C13.1084 57.0372 16.5706 53.1869 16.3344 48.6737C16.0982 44.1605 12.2529 40.6937 7.74564 40.9302C3.23819 41.1668 -0.224821 45.0172 0.0114013 49.5302C0.247623 54.0433 4.09364 57.5102 8.60109 57.2737ZM7.79435 41.861C11.7883 41.6514 15.1956 44.7233 15.4049 48.7225C15.6142 52.7217 12.5463 56.1334 8.55237 56.343C4.55824 56.5526 1.15022 53.4805 0.940904 49.4815C0.731589 45.4825 3.80022 42.0705 7.79435 41.861Z" fill="#010202"/>
<path fill-rule="evenodd" clip-rule="evenodd" d="M33.9856 73.1926C34.1348 76.0429 31.9478 78.4748 29.1011 78.6241C26.2544 78.7735 23.8255 76.5838 23.6763 73.7335C23.5271 70.8832 25.7141 68.4513 28.5608 68.302C31.4076 68.1526 33.8364 70.3423 33.9856 73.1926Z" fill="#010202"/>
<path fill-rule="evenodd" clip-rule="evenodd" d="M51.6027 47.6856C51.9136 53.6244 47.3571 58.6902 41.4267 59.0014C35.4953 59.3126 30.436 54.7514 30.1251 48.8126C29.8143 42.8738 34.3697 37.8081 40.3011 37.4968C46.2315 37.1857 51.2919 41.7468 51.6027 47.6856Z" fill="#010202"/>
<path fill-rule="evenodd" clip-rule="evenodd" d="M108.256 159L195 104.59L133.613 82.6281L108.256 159ZM192.798 104.83L110.013 156.756L134.213 83.8704L192.798 104.83Z" fill="#010202"/>
<path fill-rule="evenodd" clip-rule="evenodd" d="M140.626 86.1927C138.043 95.3911 132.656 103.359 125.449 108.933L133.461 83.4985L140.626 86.1927Z" fill="#010202"/>
</svg>

