<svg width="145" height="145" viewBox="0 0 142 134" fill="none" xmlns="http://www.w3.org/2000/svg">
<path d="M12.4237 34.822C12.4237 34.822 16.047 36.469 19.835 37.4571C23.9523 38.61 28.3991 37.9512 31.8577 35.4808C34.9869 33.1751 37.9514 28.893 32.1871 24.1169C23.2936 16.7056 16.047 36.6336 25.5993 45.8565C25.5993 45.8565 28.8932 47.1741 32.6811 48.1622C36.7985 49.3151 41.2452 48.6563 44.7038 46.1859C47.833 43.8802 50.7975 39.5981 45.0332 34.822C36.1397 27.4108 28.8932 47.3388 38.4454 56.5617M38.4454 56.397C38.4454 56.397 42.0687 58.0439 45.8567 59.0321C49.974 60.1849 54.4208 59.5261 57.8794 57.0557C61.0085 54.75 63.973 50.468 58.2087 45.6918C49.3153 38.2806 42.0687 58.2086 51.621 67.4315C51.621 67.4315 54.9149 68.749 58.7028 69.7372C62.8202 70.89 67.2669 70.2313 70.7255 67.7609C73.8547 65.4551 76.8192 61.1731 71.0549 56.397C62.1614 48.9857 54.9149 68.9137 64.4671 78.1366M63.973 77.4778C63.973 77.4778 67.5963 79.1248 71.3843 80.1129C75.5016 81.2658 79.9484 80.607 83.407 78.1366C86.5361 75.8309 89.5006 71.5488 83.7363 66.7727C74.8429 59.3615 67.5963 79.2895 77.1486 88.5123C77.1486 88.5123 80.4425 89.8299 84.2304 90.8181C88.3478 91.9709 92.7945 91.3121 96.2531 88.8417C99.3823 86.536 102.347 82.254 96.5825 77.4778C87.689 70.0666 80.4425 89.9946 89.9947 99.2175M2.58151 71.8826C2.58151 71.8826 5.91569 73.3981 9.40143 74.3075C13.1903 75.3683 17.2822 74.7621 20.4649 72.4888C23.3444 70.3671 26.0723 66.4267 20.768 62.0316C12.5841 55.2117 5.91569 73.5497 14.7058 82.0367C14.7058 82.0367 17.7369 83.2491 21.2226 84.1584C25.0115 85.2193 29.1034 84.6131 32.286 82.3398C35.1656 80.218 37.8935 76.2776 32.5892 71.8826C24.4053 65.0627 17.7369 83.4007 26.527 91.8877M26.527 91.7361C26.527 91.7361 29.8612 93.2517 33.3469 94.161C37.1358 95.2219 41.2277 94.6157 44.4103 92.3424C47.2899 90.2206 50.0178 86.2802 44.7135 81.8851C36.5296 75.0652 29.8612 93.4032 38.6513 101.89C38.6513 101.89 41.6824 103.103 45.1681 104.012C48.957 105.073 53.0489 104.467 56.2315 102.193C59.1111 100.072 61.839 96.1312 56.5346 91.7361C48.3507 84.9162 41.6824 103.254 50.4725 111.741M50.0178 111.135C50.0178 111.135 53.352 112.651 56.8377 113.56C60.6266 114.621 64.7185 114.015 67.9012 111.741C70.7807 109.619 73.5086 105.679 68.2043 101.284C60.0204 94.4641 53.352 112.802 62.1421 121.289C62.1421 121.289 65.1732 122.502 68.6589 123.411C72.4478 124.472 76.5397 123.866 79.7224 121.592C82.6019 119.47 85.3298 115.53 80.0255 111.135C71.8416 104.315 65.1732 122.653 73.9633 131.14M51.7147 15.2751C51.7147 15.2751 55.3187 16.9133 59.0865 17.8962C63.182 19.0429 67.6051 18.3876 71.0453 15.9304C74.1578 13.6369 77.1065 9.37763 71.3729 4.6269C62.5267 -2.74491 55.3187 17.0771 64.8202 26.2509C64.8202 26.2509 68.0965 27.5615 71.8643 28.5444C75.9598 29.6911 80.3829 29.0358 83.8231 26.5785C86.9356 24.2851 89.8843 20.0258 84.1507 15.2751C75.3045 7.90327 68.0965 27.7253 77.598 36.8991M77.598 36.7353C77.598 36.7353 81.202 38.3735 84.9698 39.3564C89.0653 40.5031 93.4883 39.8478 96.9285 37.3905C100.041 35.0971 102.99 30.8378 97.2562 26.0871C88.41 18.7153 81.202 38.5373 90.7034 47.7111C90.7034 47.7111 93.9798 49.0216 97.7476 50.0045C101.843 51.1513 106.266 50.496 109.706 48.0387C112.819 45.7453 115.768 41.486 110.034 36.7353C101.188 29.3635 93.9798 49.1855 103.481 58.3593M102.99 57.704C102.99 57.704 106.594 59.3422 110.362 60.3251C114.457 61.4718 118.88 60.8165 122.32 58.3593C125.433 56.0658 128.382 51.8065 122.648 47.0558C113.802 39.684 106.594 59.506 116.095 68.6798C116.095 68.6798 119.372 69.9904 123.139 70.9733C127.235 72.12 131.658 71.4647 135.098 69.0074C138.211 66.714 141.159 62.4547 135.426 57.704C126.58 50.3322 119.372 70.1542 128.873 79.328" stroke="#010101" stroke-width="5" stroke-miterlimit="10" stroke-linecap="round" stroke-linejoin="round"/>
</svg>
