<svg width="100" height="100" viewBox="0 0 155 155" fill="none" xmlns="http://www.w3.org/2000/svg">
<path d="M3 62.4417C7.78715 62.0946 19.1566 62.65 26.3374 67.6486C33.5181 72.6472 36.51 85.0049 37.1084 90.5589C43.99 91.9474 59.0096 95.974 64.0361 100.973C69.0627 105.971 70.9177 116.94 71.2169 121.8C75.1064 121.8 84.3217 123.466 90.0663 130.131C95.8108 136.796 96.6486 147.487 96.3494 152M32.6205 24.9522C37.4076 24.6051 48.7771 25.1605 55.9578 30.1591C63.1386 35.1577 66.1305 47.5154 66.7289 53.0694C73.6104 54.4579 88.6301 58.4845 93.6566 63.4831C98.6831 68.4817 100.538 79.4509 100.837 84.3106C104.727 84.3106 113.942 85.9768 119.687 92.6416C125.431 99.3064 126.269 109.998 125.97 114.51M3 37.4622C8.75055 37.0589 22.4081 37.7042 31.0339 43.5111C39.6598 49.318 43.2539 63.674 43.9727 70.1262C52.2391 71.7392 70.2815 76.417 76.3195 82.2239C82.3576 88.0308 84.586 100.774 84.9454 106.419C89.6177 106.419 100.688 108.355 107.588 116.098C114.489 123.84 115.495 136.261 115.136 141.503M39.8012 3.09682C45.5518 2.69356 59.2093 3.33877 67.8352 9.1457C76.461 14.9526 80.0551 29.3086 80.7739 35.7608C89.0403 37.3738 107.083 42.0516 113.121 47.8585C119.159 53.6654 121.387 66.4084 121.747 72.054C126.419 72.054 137.489 73.9897 144.389 81.7322C151.29 89.4748 152.296 101.895 151.937 107.138" stroke="black" stroke-width="5" stroke-linecap="round" stroke-linejoin="round"/>
</svg>
